
<svg xmlns="http://www.w3.org/2000/svg" viewBox="0 0 128 128">
  <path fill="#E44D26" d="M19.445 114.364L8.732 0h110.536l-10.715 114.344L63.978 128"/>
  <path fill="#F16529" d="M64 117.682l35.356-9.798 9.151-102.494H64"/>
  <path fill="#EBEBEB" d="M64 52.26H44.502l-1.39-15.56H64V21.92H28.594l.364 4.095 3.735 41.835H64v-15.59zm0 39.373l-.067.018-15.002-4.045-.959-10.725H32.71l1.888 21.155 29.328 8.14.074-.02V91.633z"/>
  <path fill="#FFF" d="M63.935 52.26V36.7h18.153l1.391-14.78H63.935V7.59h35.364l-.362 4.08-3.735 41.83H63.935zm0 39.373v15.56l29.284-8.13.185-2.087 2.242-25.11H79.062l-.956 10.71-14.17 3.86z"/>
</svg>
