
<svg xmlns="http://www.w3.org/2000/svg" fill="#4caf50" height="16" viewBox="0 0 24 24" width="16">
  <path d="M12 0C5.37 0 0 5.373 0 12c0 5.303 3.438 9.8 8.207 11.387.6.113.793-.26.793-.577
           0-.285-.01-1.04-.016-2.04-3.338.724-4.042-1.61-4.042-1.61C4.422 17.07
           3.633 16.7 3.633 16.7c-1.087-.744.084-.729.084-.729 1.205.084 1.84
           1.236 1.84 1.236 1.07 1.834 2.807 1.304 3.492.997.108-.775.418-1.305.762-1.605
           -2.665-.3-5.467-1.334-5.467-5.93 0-1.31.468-2.38 1.236-3.22-.124-.303-.536-1.523.117-3.176
           0 0 1.008-.322 3.3 1.23a11.48 11.48 0 0 1 3.003-.404c1.02.005 2.045.137 3.003.404
           2.29-1.552 3.296-1.23 3.296-1.23.655 1.653.243 2.873.12 3.176.77.84
           1.236 1.91 1.236 3.22 0 4.61-2.807 5.625-5.48 5.921.43.37.823 1.102.823 2.222
           0 1.606-.015 2.896-.015 3.286 0 .32.192.694.8.576C20.565 21.796 24 17.298 24 12
           24 5.373 18.627 0 12 0z"/>
</svg>
